<?xml version="1.0" encoding="utf-8"?>
<!-- Generator: Adobe Illustrator 16.0.0, SVG Export Plug-In . SVG Version: 6.00 Build 0)  -->
<!DOCTYPE svg PUBLIC "-//W3C//DTD SVG 1.1//EN" "http://www.w3.org/Graphics/SVG/1.1/DTD/svg11.dtd">
<svg version="1.1" xmlns="http://www.w3.org/2000/svg" xmlns:xlink="http://www.w3.org/1999/xlink" x="0px" y="0px" width="96px"
	 height="96px" viewBox="0 0 96 96" enable-background="new 0 0 96 96" xml:space="preserve">
<g id="DO_NOT_EDIT_-_BOUNDING_BOX">
	<rect id="BOUNDING_BOX" fill="none" width="96" height="96"/>
</g>
<g id="DO_NOT_EDIT_-_SHADOW">
	<path id="SHADOW" opacity="0.4" d="M88.023,49c0,29.633-10.364,40-40,40c-29.635,0-40-10.367-40-40c0-29.634,10.366-40,40-40
		C77.659,9,88.023,19.365,88.023,49z"/>
</g>
<g id="Layer_23">
	<radialGradient id="SVGID_1_" cx="48" cy="48" r="39.9946" gradientUnits="userSpaceOnUse">
		<stop  offset="0" style="stop-color:#144A64"/>
		<stop  offset="0.3749" style="stop-color:#17516D"/>
		<stop  offset="0.7796" style="stop-color:#1C5D7D"/>
		<stop  offset="1" style="stop-color:#1C5E7E"/>
	</radialGradient>
	<path fill="url(#SVGID_1_)" d="M49.909,8.011h-3.817C17.928,8.459,8,19.004,8,47.989c0,29.633,10.365,40,40,40
		c29.637,0,40-10.367,40-40C88,19.004,78.074,8.459,49.909,8.011z"/>
	<path id="HIGHLIGHT_VIO1" opacity="0.25" fill="#5B5B5B" d="M48,8C18.365,8,8,18.365,8,48c0,29.632,10.365,40,40,40
		c29.637,0,40-10.367,40-40C88,18.365,77.637,8,48,8z M48,87.023C18.842,87.023,9,77.176,9,48C9,18.824,18.842,8.977,48,8.977
		S87,18.824,87,48C87,77.176,77.158,87.023,48,87.023z"/>
	<g id="q">
		<linearGradient id="SVGID_2_" gradientUnits="userSpaceOnUse" x1="68.1758" y1="45.1982" x2="64.6187" y2="43.6884">
			<stop  offset="0" style="stop-color:#767676"/>
			<stop  offset="1" style="stop-color:#6E6A74"/>
		</linearGradient>
		<path fill="url(#SVGID_2_)" d="M68.077,45.406c0,0-1.985-0.866-3.334,0.763c-1.35,1.628,0.356-3.614,0.356-3.614l3.983,0.114
			l-0.085,0.592"/>
		<linearGradient id="SVGID_3_" gradientUnits="userSpaceOnUse" x1="74.4658" y1="61.2373" x2="71.6276" y2="58.8557">
			<stop  offset="0.9462" style="stop-color:#C4C4C4"/>
			<stop  offset="0.9731" style="stop-color:#C6C6C6"/>
			<stop  offset="0.9828" style="stop-color:#CDCDCD"/>
			<stop  offset="0.9897" style="stop-color:#D8D8D8"/>
			<stop  offset="0.9952" style="stop-color:#E9E9E9"/>
			<stop  offset="1" style="stop-color:#FFFFFF"/>
		</linearGradient>
		<polygon fill="url(#SVGID_3_)" points="75.917,59.506 74.712,60.659 70.182,60.593 71.081,59.506 		"/>
		<linearGradient id="SVGID_4_" gradientUnits="userSpaceOnUse" x1="68.6123" y1="55.5762" x2="72.1624" y2="57.385">
			<stop  offset="0" style="stop-color:#767676"/>
			<stop  offset="0.172" style="stop-color:#B4BAB8"/>
		</linearGradient>
		<polygon fill="url(#SVGID_4_)" points="70.317,52.229 69.367,54.518 70.182,60.593 71.081,59.506 		"/>
		<linearGradient id="SVGID_5_" gradientUnits="userSpaceOnUse" x1="67.4473" y1="45.9482" x2="71.3537" y2="48.2036">
			<stop  offset="0" style="stop-color:#767676"/>
			<stop  offset="0.0898" style="stop-color:#7C7D7E"/>
			<stop  offset="0.3465" style="stop-color:#8A8B8E"/>
			<stop  offset="0.6319" style="stop-color:#929398"/>
			<stop  offset="1" style="stop-color:#95969B"/>
		</linearGradient>
		<polygon fill="url(#SVGID_5_)" points="68.998,43.261 68.077,45.406 68.695,50.251 70.453,49.763 		"/>
		<linearGradient id="SVGID_6_" gradientUnits="userSpaceOnUse" x1="60.248" y1="49.292" x2="70.3174" y2="49.292">
			<stop  offset="0" style="stop-color:#767676"/>
			<stop  offset="0.0211" style="stop-color:#7B7B7B"/>
			<stop  offset="0.1464" style="stop-color:#949796"/>
			<stop  offset="0.2732" style="stop-color:#A6AAA9"/>
			<stop  offset="0.4012" style="stop-color:#B0B6B4"/>
			<stop  offset="0.5323" style="stop-color:#B4BAB8"/>
			<stop  offset="0.639" style="stop-color:#B0B5B4"/>
			<stop  offset="0.7585" style="stop-color:#A4A8A6"/>
			<stop  offset="0.8836" style="stop-color:#8F9291"/>
			<stop  offset="1" style="stop-color:#767676"/>
		</linearGradient>
		<path fill="url(#SVGID_6_)" d="M61.442,42.8c-1.357,3.081-1.188,3.979-1.188,5.808c0.543,5.562,3.581,7.177,5.888,7.177
			c2.309,0,3.225-1.267,3.225-1.267l0.95-2.289l-3.481-1.454L61.442,42.8z"/>
		<g id="shape_1_">
			<path fill="#E1E1E1" d="M71.173,59.404l-0.823-7.695l-0.132,0.634c-0.017,0.078-0.433,1.914-3.312,1.914
				c-2.926,0-6.058-2.979-6.058-7.414c0-4.355,1.69-6.658,4.888-6.658c2.38,0,2.841,1.073,2.845,1.084l0.194-0.06l-0.087-0.385
				h3.835l3.272,18.581H71.173z M67.674,42.973c-0.83,0-1.482,0.264-1.939,0.785c-0.938,1.068-0.72,2.821-0.71,2.896
				c0.144,2.351,1.229,3.758,2.9,3.758c1.725,0,2.088-0.734,2.102-0.766l-0.938-6.466l-0.065-0.017
				C68.533,43.037,68.079,42.973,67.674,42.973z"/>
			<path fill="#CCCCCC" d="M65.736,40.287c2.296,0,2.746,1.01,2.75,1.018l0.388-0.118l-0.059-0.262h3.622l3.237,18.376h-4.411
				l-0.744-6.96l-0.136-1.267l-0.266,1.246c-0.016,0.075-0.424,1.833-3.212,1.833c-2.876,0-5.955-2.938-5.955-7.311
				C60.951,42.554,62.605,40.287,65.736,40.287 M67.925,50.514c1.759,0,2.155-0.74,2.194-0.825l0.025-0.056l-0.009-0.06
				l-0.937-6.342l-0.02-0.134l-0.131-0.034c-0.498-0.128-0.961-0.193-1.375-0.193c-0.86,0-1.539,0.276-2.017,0.819
				c-0.967,1.103-0.744,2.9-0.735,2.962C65.07,49.069,66.192,50.514,67.925,50.514 M65.736,40.083c-3.131,0-4.989,2.229-4.989,6.76
				s3.156,7.515,6.159,7.515c3.004,0,3.411-1.995,3.411-1.995l0.764,7.143h4.836l-3.309-18.784h-4.047l0.114,0.51
				C68.676,41.231,68.229,40.083,65.736,40.083L65.736,40.083z M67.925,50.31c-1.68,0-2.664-1.459-2.8-3.67
				c0,0-0.467-3.565,2.549-3.565c0.383,0,0.821,0.057,1.324,0.187c0.937,6.341,0.937,6.341,0.937,6.341S69.604,50.31,67.925,50.31
				L67.925,50.31z"/>
		</g>
	</g>
	<g id="a">
		<polygon fill="#9E9997" points="47.355,44.222 47.411,45.864 48.276,45.864 48.276,44.215 		"/>
		<linearGradient id="SVGID_7_" gradientUnits="userSpaceOnUse" x1="48.2759" y1="44.5518" x2="54.3506" y2="44.5518">
			<stop  offset="0" style="stop-color:#818181"/>
			<stop  offset="1" style="stop-color:#595959"/>
		</linearGradient>
		<path fill="url(#SVGID_7_)" d="M48.276,44.215c0,0,0.318-0.963,3.309-0.975c2.99-0.011,2.746,1.074,2.766,1.377
			c0.021,0.304-6.075,1.246-6.075,1.246V44.215z"/>
		<linearGradient id="SVGID_8_" gradientUnits="userSpaceOnUse" x1="54.3838" y1="54.6631" x2="59.2139" y2="54.6631">
			<stop  offset="0.9731" style="stop-color:#C4C4C4"/>
			<stop  offset="0.9805" style="stop-color:#C8C8C8"/>
			<stop  offset="0.9873" style="stop-color:#D3D3D3"/>
			<stop  offset="0.9937" style="stop-color:#E5E5E5"/>
			<stop  offset="0.9999" style="stop-color:#FFFFFF"/>
			<stop  offset="1" style="stop-color:#FFFFFF"/>
		</linearGradient>
		<polygon fill="url(#SVGID_8_)" points="59.214,53.995 58.763,55.331 54.384,55.331 54.791,54.008 		"/>
		<linearGradient id="SVGID_9_" gradientUnits="userSpaceOnUse" x1="54.3838" y1="53.8047" x2="54.8164" y2="53.8047">
			<stop  offset="0.9731" style="stop-color:#C4C4C4"/>
			<stop  offset="0.9805" style="stop-color:#C8C8C8"/>
			<stop  offset="0.9873" style="stop-color:#D3D3D3"/>
			<stop  offset="0.9937" style="stop-color:#E5E5E5"/>
			<stop  offset="0.9999" style="stop-color:#FFFFFF"/>
			<stop  offset="1" style="stop-color:#FFFFFF"/>
		</linearGradient>
		<polygon fill="url(#SVGID_9_)" points="54.791,54.008 54.816,52.277 54.384,54.34 54.384,55.331 		"/>
		<linearGradient id="SVGID_10_" gradientUnits="userSpaceOnUse" x1="45.9775" y1="52.8643" x2="54.565" y2="54.0711">
			<stop  offset="0" style="stop-color:#BCBCBC"/>
			<stop  offset="0.7312" style="stop-color:#B7B4C1"/>
			<stop  offset="0.7836" style="stop-color:#B3B0BD"/>
			<stop  offset="0.8391" style="stop-color:#A8A5B0"/>
			<stop  offset="0.8961" style="stop-color:#94929B"/>
			<stop  offset="0.9536" style="stop-color:#7A787D"/>
			<stop  offset="1" style="stop-color:#5F5E60"/>
		</linearGradient>
		<path fill="url(#SVGID_10_)" d="M54.816,52.277l-8.521-1.681l0.045,1.477c0,0,0.572,3.691,4.173,3.691
			c2.737,0.216,3.869-1.425,3.869-1.425L54.816,52.277z"/>
		<linearGradient id="SVGID_11_" gradientUnits="userSpaceOnUse" x1="50.0479" y1="47.9019" x2="54.2162" y2="49.0188">
			<stop  offset="0" style="stop-color:#4F4F50"/>
			<stop  offset="0.5108" style="stop-color:#616162"/>
			<stop  offset="0.8113" style="stop-color:#585859"/>
			<stop  offset="1" style="stop-color:#4F4F50"/>
		</linearGradient>
		<path fill="url(#SVGID_11_)" d="M54.69,47.085l-0.522,2.112c0,0-2.194-0.136-3.5,0.933c-0.678-1.185-0.433-2.931-0.433-2.931
			L54.69,47.085z"/>
		<linearGradient id="SVGID_12_" gradientUnits="userSpaceOnUse" x1="54.2803" y1="48.6182" x2="55.5377" y2="48.9551">
			<stop  offset="0" style="stop-color:#4F4F50"/>
			<stop  offset="0.5108" style="stop-color:#616162"/>
			<stop  offset="0.8113" style="stop-color:#585859"/>
			<stop  offset="1" style="stop-color:#4F4F50"/>
		</linearGradient>
		<polygon fill="url(#SVGID_12_)" points="54.168,49.197 54.181,50.343 55.186,50.267 55.097,47.085 54.69,47.085 		"/>
		<linearGradient id="SVGID_13_" gradientUnits="userSpaceOnUse" x1="50.5068" y1="50.4121" x2="54.2295" y2="50.4121">
			<stop  offset="0" style="stop-color:#4D4D4D"/>
			<stop  offset="0.374" style="stop-color:#555656"/>
			<stop  offset="0.9941" style="stop-color:#6B6E70"/>
			<stop  offset="1" style="stop-color:#6B6E70"/>
		</linearGradient>
		<path fill="url(#SVGID_13_)" d="M50.677,50.088l0.258-0.148c0,0,0.158,0.691,1.464,0.691c1.308,0,1.777-0.576,1.777-0.576
			l0.054,0.831l-3.723-0.076L50.677,50.088z"/>
		<g id="shape_2_">
			<path fill="#E1E1E1" d="M50.896,54.239c-2.957,0-4.504-2.468-4.504-3.79c0-0.104-0.005-0.227-0.011-0.364
				c-0.038-0.869-0.1-2.324,1.021-3.495c1.186-1.238,3.424-1.865,6.653-1.865l0.411,0.003l-0.016-0.116
				c-0.121-0.946-1.068-1.467-2.667-1.467c-1.505,0-3.268,0.495-3.573,0.985c-0.293,0.014-0.57,0.017-0.731,0.017h-0.044
				l0.012-3.343c0.431-0.094,2.524-0.539,3.78-0.539l1.875-0.002c0.394,0,1.775,0.046,3.027,0.638
				c1.56,0.738,2.351,2.022,2.351,3.818c0.23,4.325,0.563,8.456,0.622,9.176l-4.209,0.012l0.031-2.07l-0.202,0.453
				C54.715,52.308,53.818,54.239,50.896,54.239z M54.588,46.983c-1.831,0-3.08,0.323-3.713,0.959
				c-0.531,0.534-0.528,1.156-0.526,1.567c0.001,0.873,0.771,1.279,2.292,1.279c1.448,0,2.007-0.761,2.03-0.794l0.019-3.011H54.588z
				"/>
			<path fill="#CCCCCC" d="M53.104,40.363c0.882,0,5.275,0.21,5.276,4.365c0.221,4.139,0.535,8.103,0.613,9.063l-3.995,0.012
				l0.021-1.472l0.016-1l-0.405,0.915c-0.008,0.019-0.87,1.89-3.733,1.89c-2.89,0-4.402-2.4-4.402-3.688
				c0-0.105-0.005-0.229-0.011-0.368c-0.037-0.854-0.098-2.281,0.994-3.421c1.166-1.217,3.379-1.834,6.579-1.833l0.293,0.001
				l0.233,0.002l-0.029-0.232c-0.129-1.003-1.112-1.556-2.769-1.556c-1.391,0-3.201,0.43-3.627,0.987
				c-0.24,0.011-0.465,0.014-0.618,0.014l0.011-3.158c0.563-0.122,2.498-0.52,3.679-0.52h1.739
				C52.971,40.365,53.019,40.363,53.104,40.363 M52.641,50.891c1.5,0,2.089-0.803,2.113-0.837l0.038-0.053v-0.065v-2.851v-0.204
				h-0.204c-1.886,0-3.124,0.324-3.785,0.989c-0.562,0.564-0.558,1.237-0.556,1.64v0.069C50.247,50.449,51.053,50.891,52.641,50.891
				 M53.104,40.16c-0.093,0-0.145,0.002-0.145,0.002s-0.307,0-1.73,0c-1.426,0-3.882,0.56-3.882,0.56l-0.013,3.525
				c0,0,0.055,0.001,0.146,0.001c0.173,0,0.479-0.003,0.795-0.02c0.155-0.438,1.919-0.981,3.508-0.981
				c1.273,0,2.434,0.348,2.566,1.378c-0.1-0.001-0.198-0.001-0.295-0.001c-8.669,0-7.765,4.468-7.765,5.826
				c0,1.375,1.578,3.892,4.606,3.892c3.029,0,3.92-2.012,3.92-2.012l-0.025,1.679l4.423-0.013c0,0-0.376-4.492-0.631-9.277
				C58.583,40.368,53.985,40.16,53.104,40.16L53.104,40.16z M52.641,50.687c-1.412,0-2.189-0.344-2.189-1.107
				s-0.14-2.494,4.137-2.494v2.851C54.588,49.936,54.053,50.687,52.641,50.687L52.641,50.687z"/>
		</g>
	</g>
	<g id="r">
		<linearGradient id="SVGID_14_" gradientUnits="userSpaceOnUse" x1="36.2002" y1="55.2969" x2="40.4988" y2="54.1451">
			<stop  offset="0.9731" style="stop-color:#C4C4C4"/>
			<stop  offset="0.9805" style="stop-color:#C8C8C8"/>
			<stop  offset="0.9873" style="stop-color:#D3D3D3"/>
			<stop  offset="0.9937" style="stop-color:#E5E5E5"/>
			<stop  offset="0.9999" style="stop-color:#FFFFFF"/>
			<stop  offset="1" style="stop-color:#FFFFFF"/>
		</linearGradient>
		<polygon fill="url(#SVGID_14_)" points="35.854,54.008 36.474,55.434 40.844,55.434 40.461,54.008 		"/>
		<linearGradient id="SVGID_15_" gradientUnits="userSpaceOnUse" x1="42.2852" y1="49.79" x2="39.5289" y2="50.5286">
			<stop  offset="0.0215" style="stop-color:#767676"/>
			<stop  offset="0.0798" style="stop-color:#868787"/>
			<stop  offset="0.1953" style="stop-color:#AEB4B2"/>
			<stop  offset="0.2097" style="stop-color:#B4BAB8"/>
		</linearGradient>
		<polygon fill="url(#SVGID_15_)" points="40.971,44.883 41.353,46.686 40.844,55.434 40.461,54.008 		"/>
		<linearGradient id="SVGID_16_" gradientUnits="userSpaceOnUse" x1="45.7842" y1="45.127" x2="41.2268" y2="46.0956">
			<stop  offset="0.5376" style="stop-color:#B4BAB8"/>
			<stop  offset="0.6368" style="stop-color:#AEB4B2"/>
			<stop  offset="0.7754" style="stop-color:#9EA1A0"/>
			<stop  offset="0.9366" style="stop-color:#828483"/>
			<stop  offset="1" style="stop-color:#767676"/>
		</linearGradient>
		<path fill="url(#SVGID_16_)" d="M40.971,44.883c0,0,2.163-0.992,4.759-0.012c0.043,0.678,0.102,1.604,0.102,1.604
			s-3.063-0.408-4.479,0.212C41.094,45.467,40.971,44.883,40.971,44.883z"/>
		<linearGradient id="SVGID_17_" gradientUnits="userSpaceOnUse" x1="45.73" y1="43.4707" x2="45.832" y2="43.4707">
			<stop  offset="0.8011" style="stop-color:#B4BAB8"/>
			<stop  offset="0.8437" style="stop-color:#AEB4B2"/>
			<stop  offset="0.9034" style="stop-color:#9EA1A0"/>
			<stop  offset="0.9727" style="stop-color:#828483"/>
			<stop  offset="1" style="stop-color:#767676"/>
		</linearGradient>
		<polygon fill="url(#SVGID_17_)" points="45.832,40.467 45.832,46.474 45.73,44.871 		"/>
		<g id="shape_3_">
			<path fill="#E1E1E1" d="M35.966,53.906l1.204-13.337h3.47v1.9l0.179-0.205c0.015-0.017,1.5-1.696,3.232-1.696h1.678l-0.097,4.165
				c-0.339-0.098-1.292-0.341-2.434-0.341c-0.839,0-1.601,0.133-2.264,0.395l-0.064,0.025v0.069c0,1.367-0.444,8.138-0.502,9.023
				H35.966z"/>
			<path fill="#CCCCCC" d="M45.624,40.671l-0.091,3.93c-0.42-0.113-1.302-0.31-2.335-0.31c-0.853,0-1.626,0.135-2.301,0.402
				l-0.129,0.051v0.139c0,1.323-0.418,7.73-0.496,8.921h-4.194l1.186-13.133h3.275v1.527v0.542l0.357-0.409
				c0.015-0.017,1.471-1.661,3.155-1.661H45.624 M45.832,40.467H44.05c-1.8,0-3.309,1.731-3.309,1.731v-1.731h-3.665l-1.222,13.541
				h4.607c0,0,0.509-7.649,0.509-9.125c0.736-0.291,1.516-0.388,2.227-0.388c1.401,0,2.533,0.375,2.533,0.375L45.832,40.467
				L45.832,40.467z"/>
		</g>
	</g>
	<g id="T">
		<polygon fill="#B7B7B9" points="35.854,36.7 36.415,38.55 36.16,42.096 35.549,40.264 		"/>
		<linearGradient id="SVGID_18_" gradientUnits="userSpaceOnUse" x1="31.5557" y1="41.9707" x2="35.5822" y2="40.3439">
			<stop  offset="0" style="stop-color:#898989"/>
			<stop  offset="0.0521" style="stop-color:#9A9A9A"/>
			<stop  offset="0.1256" style="stop-color:#AAAAAB"/>
			<stop  offset="0.2052" style="stop-color:#B4B4B6"/>
			<stop  offset="0.3011" style="stop-color:#B7B7B9"/>
		</linearGradient>
		<polygon fill="url(#SVGID_18_)" points="30.866,40.264 31.629,42.096 36.16,42.096 35.549,40.264 		"/>
		<linearGradient id="SVGID_19_" gradientUnits="userSpaceOnUse" x1="33.7632" y1="46.2031" x2="26.8056" y2="49.5965">
			<stop  offset="0" style="stop-color:#767676"/>
			<stop  offset="0.172" style="stop-color:#B4BAB8"/>
		</linearGradient>
		<polygon fill="url(#SVGID_19_)" points="30.866,40.264 28.957,54.008 29.912,55.434 31.629,42.096 		"/>
		<linearGradient id="SVGID_20_" gradientUnits="userSpaceOnUse" x1="25.394" y1="55.8291" x2="28.6875" y2="53.6076">
			<stop  offset="0.9355" style="stop-color:#C4C4C4"/>
			<stop  offset="0.9677" style="stop-color:#C6C6C6"/>
			<stop  offset="0.9794" style="stop-color:#CDCDCD"/>
			<stop  offset="0.9876" style="stop-color:#D8D8D8"/>
			<stop  offset="0.9943" style="stop-color:#E9E9E9"/>
			<stop  offset="1" style="stop-color:#FFFFFF"/>
		</linearGradient>
		<polygon fill="url(#SVGID_20_)" points="24.166,54.008 25.165,55.434 29.912,55.434 28.957,54.008 		"/>
		<linearGradient id="SVGID_21_" gradientUnits="userSpaceOnUse" x1="21.7769" y1="41.0181" x2="26.3541" y2="41.1779">
			<stop  offset="0.8441" style="stop-color:#C3C3C3"/>
			<stop  offset="0.8901" style="stop-color:#BCBCBC"/>
			<stop  offset="0.9584" style="stop-color:#A8A8A8"/>
			<stop  offset="1" style="stop-color:#989898"/>
		</linearGradient>
		<polygon fill="url(#SVGID_21_)" points="26.387,40.238 26.101,41.994 22.823,41.994 21.805,40.2 		"/>
		<g id="shape">
			<polygon fill="#E1E1E1" points="24.266,53.906 26.506,40.138 21.929,40.099 22.601,36.802 35.744,36.802 35.456,40.162 
				30.777,40.162 28.868,53.906 			"/>
			<path fill="#CCCCCC" d="M35.633,36.904l-0.271,3.156h-4.497h-0.177l-0.024,0.176L28.78,53.804h-4.394l2.202-13.533l0.038-0.234
				l-0.237-0.002l-4.335-0.037l0.63-3.094H35.633 M35.854,36.7H22.518l-0.713,3.5l4.582,0.039l-2.24,13.77h4.811l1.909-13.744h4.684
				L35.854,36.7L35.854,36.7z"/>
		</g>
	</g>
</g>
<g id="DO_NOT_EDIT_-_FOCAL_ZONE_GUIDES_ONLY" display="none">
</g>
</svg>
